<?xml version="1.0" standalone="no"?>
<!DOCTYPE svg PUBLIC "-//W3C//DTD SVG 20010904//EN"
 "http://www.w3.org/TR/2001/REC-SVG-20010904/DTD/svg10.dtd">
<svg version="1.0" xmlns="http://www.w3.org/2000/svg"
 width="1920.000000pt" height="1920.000000pt" viewBox="0 0 1920.000000 1920.000000"
 preserveAspectRatio="xMidYMid meet">
<metadata>
Created by potrace 1.11, written by Peter Selinger 2001-2013
</metadata>
<g transform="translate(0.000000,1920.000000) scale(0.100000,-0.100000)"
fill="#000000" stroke="none">
<path d="M12557 14705 c-1 -2 -38 -6 -82 -9 -82 -7 -94 -8 -180 -21 -56 -8
-62 -9 -125 -24 -25 -5 -56 -12 -70 -14 -14 -3 -45 -10 -70 -17 -25 -7 -53
-14 -64 -16 -10 -2 -44 -11 -75 -20 -31 -10 -63 -19 -71 -20 -24 -5 -323 -104
-345 -114 -11 -5 -72 -29 -135 -54 -175 -67 -332 -137 -590 -263 -129 -64
-252 -121 -272 -129 -46 -16 -173 -12 -288 9 -102 19 -136 24 -215 32 -33 3
-71 8 -85 10 -26 4 -147 14 -266 21 -207 11 -615 1 -804 -21 -19 -2 -60 -7
-90 -10 -30 -4 -66 -8 -80 -10 -14 -2 -50 -7 -80 -10 -30 -4 -64 -9 -75 -11
-11 -3 -36 -6 -55 -9 -19 -3 -44 -7 -55 -9 -310 -65 -574 -152 -870 -287 -27
-12 -52 -23 -55 -23 -19 -4 -323 -169 -418 -227 -188 -115 -472 -308 -512
-349 -3 -3 -23 -18 -45 -35 -22 -16 -51 -39 -65 -51 -14 -12 -63 -54 -110 -94
-177 -152 -430 -420 -586 -620 -110 -142 -255 -357 -318 -475 -15 -27 -37 -66
-48 -85 -80 -136 -199 -399 -275 -610 -62 -172 -153 -488 -179 -625 -4 -22 -8
-42 -9 -45 -6 -22 -16 -71 -20 -100 -3 -19 -10 -57 -15 -85 -5 -27 -12 -70
-15 -95 -3 -25 -8 -52 -10 -60 -2 -8 -7 -44 -10 -80 -4 -36 -8 -76 -10 -90
-14 -99 -20 -244 -20 -495 0 -294 5 -378 31 -575 11 -89 15 -116 25 -172 6
-32 12 -70 15 -85 2 -16 7 -34 9 -42 3 -7 8 -42 11 -76 8 -83 -8 -136 -92
-305 -36 -74 -79 -162 -94 -195 -15 -33 -49 -104 -74 -158 -25 -53 -46 -99
-46 -102 0 -3 -10 -27 -21 -53 -12 -26 -30 -67 -41 -92 -106 -237 -284 -825
-318 -1050 -6 -41 -14 -93 -18 -115 -15 -93 -7 -450 12 -540 43 -202 68 -278
138 -415 150 -294 443 -483 818 -527 87 -10 342 -10 460 1 124 10 138 12 180
20 19 3 46 8 60 10 31 5 98 17 125 23 11 2 31 6 45 9 154 30 557 157 695 219
17 7 65 27 107 44 43 17 86 35 95 40 10 5 34 16 53 24 174 78 564 269 645 317
17 10 65 36 107 59 186 99 503 293 763 467 269 180 830 596 985 730 14 12 95
80 180 150 127 105 287 241 310 264 3 3 39 34 80 70 151 130 162 143 155 173
l-7 27 -1352 0 c-1374 0 -1683 3 -1816 15 -86 8 -203 44 -258 79 -93 59 -154
165 -153 268 1 129 14 156 236 493 76 116 195 297 264 403 69 105 285 432 479
725 194 292 359 545 367 561 21 41 18 100 -6 148 -12 23 -182 283 -379 578
-322 483 -437 656 -598 905 -358 555 -372 581 -367 686 8 155 166 328 328 358
50 9 3708 7 3802 -3 28 -2 93 -7 145 -11 52 -3 112 -11 132 -16 79 -21 182
-131 222 -239 68 -185 -50 -396 -268 -477 -46 -17 -134 -18 -2098 -24 -582 -2
-1058 -5 -1058 -7 0 -2 19 -35 43 -73 23 -39 47 -78 52 -87 12 -20 199 -304
295 -448 37 -56 69 -105 71 -110 2 -5 57 -89 122 -187 112 -169 177 -268 396
-605 119 -181 141 -234 138 -327 -4 -91 -21 -126 -222 -430 -224 -340 -393
-597 -520 -795 -60 -93 -163 -251 -228 -350 -121 -185 -146 -239 -111 -239 11
0 111 -3 224 -7 113 -4 516 -7 897 -8 631 -1 694 0 709 15 13 14 17 43 19 160
2 79 6 155 9 169 3 14 9 41 12 60 8 47 51 204 70 260 38 109 66 186 74 205 8
18 101 271 196 534 59 161 55 166 -135 166 -124 -1 -263 -10 -301 -20 -8 -2
-32 -6 -52 -9 -90 -14 -181 -67 -223 -131 -33 -51 -62 -156 -65 -232 0 -28
-40 -53 -82 -53 -68 1 -102 41 -117 137 -17 108 6 209 74 325 83 141 195 243
350 314 66 30 198 72 249 79 12 1 57 8 101 14 80 11 186 20 300 26 33 2 304 4
601 4 588 1 589 1 632 -54 12 -15 31 -47 43 -71 37 -78 16 -178 -55 -252 -61
-66 -117 -74 -481 -75 -126 0 -241 -4 -255 -9 -56 -19 -94 -68 -130 -168 -25
-70 -225 -582 -240 -615 -5 -11 -28 -67 -51 -125 -122 -311 -155 -451 -124
-526 32 -77 110 -111 235 -102 137 10 216 82 330 302 80 155 104 185 150 192
77 11 133 -60 129 -165 -4 -95 -39 -176 -126 -290 -42 -55 -35 -61 80 -68 129
-8 204 29 292 142 49 62 138 165 213 244 39 40 86 92 105 115 19 22 45 52 57
66 12 14 38 45 58 69 21 24 42 49 47 55 127 137 561 692 730 931 54 77 110
156 125 175 56 74 289 434 410 635 191 318 224 377 378 685 65 129 132 267
149 305 17 39 43 97 58 130 34 75 175 431 175 442 0 4 11 37 24 73 13 36 29
85 36 110 7 25 19 64 26 87 12 39 61 241 69 288 45 247 58 373 59 574 3 225
-19 357 -84 521 -124 314 -414 566 -724 630 -107 22 -113 23 -226 35 -62 6
-307 14 -313 10z m278 -629 c116 -18 165 -32 218 -59 135 -70 203 -190 222
-392 8 -77 8 -260 0 -315 -2 -19 -7 -57 -10 -85 -4 -27 -8 -57 -10 -65 -3 -8
-7 -31 -9 -50 -15 -120 -160 -633 -206 -732 -7 -15 -22 -30 -32 -34 -18 -5
-68 19 -68 34 0 4 -10 18 -22 32 -13 14 -62 70 -109 125 -196 228 -465 477
-727 673 -210 157 -559 373 -769 476 -13 6 -25 16 -27 22 -10 26 725 296 868
318 21 4 42 8 46 11 11 7 169 34 239 42 31 3 57 6 59 8 5 4 300 -3 337 -9z
m-7586 -6631 c177 -331 411 -671 666 -964 136 -157 348 -365 514 -506 52 -44
110 -94 128 -110 l34 -31 -53 -21 c-59 -24 -321 -115 -383 -133 -168 -48 -320
-83 -411 -96 -27 -3 -57 -8 -66 -9 -96 -19 -362 -26 -463 -13 -230 29 -357
134 -416 343 -9 34 -14 104 -14 225 1 188 7 277 31 410 9 47 17 96 19 110 2
14 11 54 20 90 10 36 19 78 22 94 14 86 174 535 254 712 l31 69 17 -35 c9 -19
41 -80 70 -135z"/>
<path d="M13701 10794 c-1 -5 -44 -77 -96 -160 -117 -184 -88 -141 -258 -394
-212 -316 -211 -315 -216 -320 -4 -3 -10 -12 -16 -21 -5 -9 -41 -60 -80 -114
-38 -53 -77 -107 -85 -118 -20 -30 -271 -367 -292 -392 -9 -11 -58 -74 -109
-140 -51 -66 -96 -122 -99 -125 -3 -3 -53 -63 -110 -135 -58 -71 -174 -211
-259 -310 -162 -189 -177 -206 -332 -375 -53 -58 -116 -127 -140 -153 -24 -27
-86 -92 -137 -145 -299 -310 -505 -511 -807 -787 -60 -55 -116 -107 -125 -115
-9 -9 -65 -58 -125 -110 -61 -51 -115 -99 -121 -104 -6 -6 -33 -29 -60 -51
-27 -22 -67 -56 -89 -76 -22 -19 -74 -62 -115 -95 -41 -32 -77 -61 -80 -64
-51 -53 -587 -460 -870 -661 -167 -119 -686 -469 -695 -469 -6 0 -342 -213
-353 -224 -11 -10 -11 -13 0 -13 7 -1 45 -8 83 -16 39 -9 84 -19 100 -22 80
-16 282 -51 346 -59 25 -4 59 -9 75 -11 88 -14 79 -13 257 -30 28 -3 77 -7
107 -10 196 -19 584 -19 800 -1 78 7 241 25 270 31 14 2 43 7 65 10 22 4 49 8
60 10 195 30 457 98 700 181 28 9 54 21 59 25 6 5 16 9 24 9 37 0 388 164 577
270 178 99 501 327 664 467 30 26 73 64 96 83 72 62 369 363 446 451 599 691
948 1404 1078 2204 31 186 35 226 48 405 14 192 7 629 -12 760 -3 20 -11 92
-20 185 -6 51 -20 141 -40 250 -41 219 -42 222 -67 320 -11 44 -22 90 -24 102
-5 29 -23 71 -23 57z"/>
</g>
</svg>
