mtllib materials.mtl
v -0.187154 0.08556427 0.4565884
v -0.1729594 0.4542487 0.4474632
v 0.01420391 0.4367672 0.475109
v 0.04075429 0.4241685 0.2873957
v -0.1431158 0.447635 0.2525017
v -0.1488531 0.07961287 0.2535003
v 0.01044565 0.06704536 0.4890168
v 0.04926884 0.06949957 0.2860407
v 0.06420058 -0.6235911 0.1863556
v 0.07082355 -0.4377546 0.04871123
v 0.1067708 -0.6313702 0.05750917
v -0.106612 -0.5095472 0.1278949
v -0.08453265 -0.4552487 0.02375256
v -0.07929391 -0.6253216 0.01836106
v -0.09465331 -0.6141692 0.1491527
v 0.1591675 0.1299376 -0.4552093
v 0.1381386 0.1164089 -0.2534559
v -0.0604707 0.08871073 -0.2691436
v -0.03920096 0.1027518 -0.4730459
v 0.03930438 -0.4604504 0.1840543
v 0.1405667 -0.4222675 -0.08751477
v 0.1495542 -0.6218563 -0.1096707
v -0.05783582 -0.4276655 -0.1193687
v -0.07178876 -0.6442057 -0.06992291
v 0.1659723 -0.378553 -0.2227841
v -0.0336909 -0.3858361 -0.2448952
v 0.1898843 -0.5801362 -0.2947078
v -0.009779036 -0.5874194 -0.3168188
v 0.1643624 -0.286045 -0.2539231
v 0.1976697 -0.4123535 -0.4353808
v -0.03529823 -0.2933093 -0.2760609
v -0.001991391 -0.419618 -0.4575188
v 0.16322 -0.1627086 -0.2694421
v 0.1993115 -0.2171884 -0.4551178
v -0.02257258 -0.1744897 -0.2826093
v -0.000356257 -0.2299492 -0.474542
v 0.1576149 -0.02330595 -0.2656104
v 0.1774142 -0.04181305 -0.4647913
v -0.04153746 -0.04394794 -0.2834888
v -0.0217379 -0.06245512 -0.4826695
v -0.05879986 0.4408241 -0.2572082
v 0.1286881 0.4586483 -0.2320973
v 0.13866 0.1109629 -0.2533771
v 0.1592028 0.1264732 -0.4560849
v 0.1525332 0.4661391 -0.4278514
v -0.03366965 0.4418032 -0.4455361
v -0.05994651 0.08401315 -0.2702648
v -0.03851062 0.1004371 -0.4733962
v -0.02468547 -0.5974799 -0.2289282
v -0.06531316 -0.430106 -0.077924
v -0.07366097 -0.6437843 -0.07161574
v -0.04077268 -0.4137886 -0.208297
v 0.1506538 -0.4102085 -0.1446428
v 0.1282144 -0.4255826 -0.02104318
v 0.1275436 -0.6260553 -0.03906758
v 0.1428455 -0.5999187 -0.1736591
v -0.1867922 0.08852124 0.4564003
v -0.1484993 0.08702081 0.2537377
v 0.04990312 0.07064539 0.2865548
v 0.01161012 0.07214552 0.4892173
v -0.1038502 -0.4424697 0.06278871
v -0.1160047 -0.6456994 0.08500059
v 0.09208533 -0.4378217 0.1107094
v 0.09408852 -0.6392565 0.1220558
v -0.1427274 -0.4077326 0.1980353
v 0.05535933 -0.4043564 0.2362313
v -0.1594435 -0.6148044 0.2577707
v 0.0386433 -0.6114283 0.2959669
v -0.1494894 -0.316812 0.2339345
v -0.1890697 -0.4551962 0.4061151
v 0.04859149 -0.3134189 0.272158
v 0.009011596 -0.4518031 0.4443388
v -0.1708688 -0.1937135 0.2483954
v -0.2047246 -0.2611375 0.4355226
v -0.006070852 -0.2630925 0.470759
v 0.04148665 -0.1929928 0.2800266
v -0.1604403 -0.05420583 0.2593938
v -0.1948144 -0.08491904 0.4558219
v 0.03832403 -0.06399053 0.2926465
v 0.003949761 -0.09470385 0.4890745
vn -0.1433154 0.0300016 0.9892222
vn 0.1857596 -0.00556196 -0.9825795
vn -0.09513119 -0.9954014 0.0112288
vn 0.100549 0.993548 -0.05246159
vn 0.990089 -0.004784432 0.1403604
vn -0.9882988 0.01499511 -0.1517916
vn 0.1624497 0.007669435 -0.9866871
vn -0.04750134 -0.998647 -0.02116035
vn 0.9818875 0.02285368 0.1880818
vn -0.158289 0.03872311 0.9866333
vn -0.9819579 0.03319829 -0.1861628
vn 0.1291745 0.9915251 -0.01386208
vn 0.9360222 0.1873235 0.2979471
vn -0.1686731 0.8882156 0.4273436
vn -0.975482 -0.02310964 -0.2188626
vn -0.04901867 -0.9956575 0.07914103
vn -0.1411103 0.9886022 0.05247491
vn -0.3961236 0.1391324 0.9075948
vn 0.8905562 -0.01037996 0.4547549
vn -0.04179315 0.9949083 0.09171139
vn -0.9818996 -0.02429082 -0.1878381
vn 0.1367674 -0.966248 0.2183102
vn 0.9811895 0.02290425 0.1916836
vn -0.07081496 0.9517108 0.2987172
vn -0.9830891 0.02182775 -0.1818226
vn 0.05997875 -0.9761986 -0.2084203
vn 0.9884974 0.06341822 0.137299
vn -0.1158572 0.3151551 0.9419418
vn -0.9883521 -0.06680792 -0.1367364
vn 0.1075243 -0.641699 -0.759382
vn 0.9828408 0.03196172 0.1816657
vn -0.1123527 0.06667376 0.991429
vn -0.9850042 0.09765587 -0.1422328
vn 0.1021183 -0.08979922 -0.9907109
vn 0.9879961 0.1281213 0.08630598
vn -0.08877463 -0.00618746 0.9960325
vn -0.9874322 -0.1361013 -0.08033693
vn 0.09633012 -0.03947641 -0.9945664
vn 0.987743 0.1302028 0.08608761
vn -0.07664847 -0.1179997 0.9900511
vn -0.9875638 -0.1316541 -0.08593583
vn 0.08149333 0.06532185 -0.994531
vn -0.9854968 -0.1338422 -0.1043188
vn 0.9571488 0.1495646 0.2479848
vn 0.9890245 0.09895258 0.1097221
vn -0.9890815 -0.09814618 -0.1099329
vn -0.9681246 -0.02595431 -0.2491211
vn 0.9746366 0.03685445 0.2207384
vn 0.9882727 0.06854545 0.1364503
vn 0.9846592 0.009337605 0.1742387
vn 0.1132657 -0.1009117 -0.9884269
vn -0.9844296 -0.007276269 -0.1756286
vn -0.06796953 -0.9969735 0.03773583
vn -0.2291691 -0.02124473 0.9731548
vn 0.9489421 0.1877037 0.2535277
vn -0.01944494 -0.9979013 -0.06176507
vn -0.3443606 0.9356982 0.07671179
vn -0.1362119 0.9771913 0.1629221
vn -0.06514065 -0.09549238 0.9932965
vn -0.9946851 0.04269891 -0.093693
vn -0.07795565 0.1237517 0.9892464
vn 0.9828914 0.03454768 0.180917
vn -0.06875767 -0.03017331 0.997177
vn -0.1264745 -0.0642127 0.9898894
vn 0.08330623 0.08417202 -0.9929629
vn 0.1393406 -0.9883328 -0.06150216
vn -0.09366754 0.9955766 -0.007322863
vn -0.9911878 0.008023561 -0.132221
vn 0.9925754 0.009409998 0.1212669
vn 0.07648128 0.08002737 -0.9938542
vn 0.1359206 -0.9885466 -0.06558432
vn -0.9944143 0.02251767 -0.1031171
vn -0.07979257 -0.03619539 0.9961542
vn 0.9944857 0.02225022 0.1024851
vn -0.131607 0.9910603 0.02189318
vn -0.956779 0.02883556 -0.2893828
vn -0.05637337 0.9919544 0.1133514
vn 0.984152 -0.01914329 0.1762908
vn 0.1147336 -0.9775391 -0.1767867
vn 0.08095378 0.9966864 0.007917976
vn 0.3105997 0.1312101 -0.9414414
vn -0.9647234 0.02909974 -0.2616525
vn -0.04438206 0.9959828 0.07777204
vn 0.9635211 0.02459323 0.2665001
vn 0.04336789 -0.9964154 -0.07263368
vn -0.9589178 0.02647991 -0.2824458
vn 0.03354108 0.9692511 -0.2437772
vn 0.9612404 0.02502527 0.2745737
vn -0.01285499 -0.9879883 0.1539932
vn -0.9765978 0.01215243 -0.2147304
vn 0.1695958 0.3729108 -0.9122362
vn 0.9767131 -0.0155086 0.2139885
vn -0.1261369 -0.687826 0.7148321
vn -0.9640555 -0.1409774 -0.2252165
vn 0.1850188 0.146293 -0.9717852
vn 0.9659294 0.04028308 0.2556517
vn -0.1741016 -0.1501674 0.9732104
vn -0.9847642 0.07880376 -0.1550146
vn 0.1677672 0.06500944 -0.9836808
vn 0.9841321 -0.07600427 0.1603358
vn -0.1718468 -0.09987991 0.9800473
vn -0.9840923 0.0767913 -0.1602046
vn 0.1602768 -0.05563301 -0.9855031
vn 0.9840614 -0.07738822 0.1601071
vn -0.1637453 0.005455851 0.9864876
vn 0.9931854 -0.05647204 0.10195
vn -0.9792267 -0.06415419 -0.192352
vn -0.9815102 0.04601753 -0.1857959
vn 0.9815468 -0.04522375 0.1857978
vn 0.953175 0.01024523 0.3022457
vn -0.9694684 0.007555875 -0.2451003
vn -0.9767671 0.01722932 -0.21361
vn -0.9664254 -0.03948712 -0.2538953
vn -0.184306 -0.1617798 0.9694631
vn 0.9659563 0.04145106 0.2553631
vn 0.07206585 -0.9626663 -0.2609219
vn 0.3122576 0.1329944 -0.9406422
vn -0.9649978 0.03000829 -0.2605356
vn 0.08599237 -0.9962344 0.01106767
vn 0.9792399 -0.02139981 0.2015724
vn -0.0008226107 -0.9844205 0.1758284
vn 0.1466921 0.07311076 -0.9864767
vn 0.1462607 0.09986538 -0.9841924
vn 0.9702826 0.0001160735 0.2419745
vt -0.02884001 0.01302224
vt 0.002888065 0.03187586
vt -0.007742989 0.04762325
vt 0.008275305 0.04886393
vt -0.002787796 0.03358739
vt 0.02921131 0.0153995
vt 0.06947408 0.01564283
vt 0.04184189 0.008824964
vt 0.05954982 -0.001847479
vt -0.06788155 0.01417312
vt -0.05914374 -0.002698473
vt -0.05100996 0.02291092
vt 0.025333 -0.05148027
vt 0.05017803 -0.02406237
vt 0.03575063 -0.01169913
vt -0.01100325 -0.03550706
vt -0.03666219 -0.009118404
vt -0.05119668 -0.02246728
vt 0.02829885 0.01526343
vt 0.0386501 0.03249671
vt 0.006979653 0.04848506
vt 0.0698081 0.01420531
vt 0.05218486 0.025001
vt 0.04212534 0.007595816
vt 0.03240419 -0.01333796
vt 0.0056927 -0.03668619
vt 0.0192377 -0.05229576
vt -0.008860759 0.04804529
vt -0.04109705 0.02988381
vt -0.02972106 0.01330104
vt -0.05054213 -0.02218464
vt -0.0251022 -0.04892298
vt -0.01016124 -0.03463175
vt -0.05813449 -0.0046628
vt -0.04095445 0.005047496
vt -0.05074279 0.02117056
vt -0.07824276 -0.05778027
vt -0.06755779 -0.03726
vt -0.08518044 -0.04609223
vt -0.05558079 -0.01191486
vt -0.04620016 -0.004510917
vt -0.05479548 0.008784406
vt 0.04789618 -0.0635703
vt 0.06402537 -0.06241896
vt 0.05061427 -0.05193301
vt 0.02756168 0.02355997
vt 0.02498086 0.04560538
vt 0.01555428 0.0290817
vt 0.01493815 0.05791226
vt -0.00334937 0.04903177
vt 0.004818632 0.03065046
vt 0.02330044 0.03963264
vt -0.09120439 -0.02643597
vt -0.08164848 -0.02152767
vt -0.08725755 -0.006129688
vt -0.06091032 -0.03345754
vt -0.06801644 -0.01981504
vt -0.08600798 -0.02878042
vt -0.03543877 0.02930171
vt -0.01505915 0.02349397
vt -0.02524665 0.0408228
vt 0.04874045 -0.05386384
vt 0.06188629 -0.0646805
vt 0.05633479 -0.0411399
vt -0.003393806 0.01680683
vt -0.01048024 0.04205636
vt -0.01204001 0.01951111
vt -0.07336541 -0.05181701
vt -0.05684882 -0.04035947
vt -0.06268289 -0.02714941
vt -0.03999726 0.03120577
vt -0.0288059 0.01450775
vt -0.01792319 0.02241082
vt -0.02827623 0.03964116
vt 0.05321594 -0.04295045
vt 0.0651489 -0.061736
vt 0.05914598 -0.03087856
vt 0.03040757 0.01230081
vt 0.03541704 0.03433773
vt 0.01971559 0.04571849
vt 0.00977003 0.02824968
vt -0.06214827 -0.03088646
vt -0.05727915 -0.02242531
vt -0.0789993 -0.01712098
vt -0.07394678 0.01223784
vt -0.0635428 -0.004961883
vt -0.05510234 -5.174765E-05
vt -0.06550855 0.01714659
vt 0.06152624 -0.03080925
vt 0.08158186 -0.03865636
vt 0.07833325 -0.01698634
vt 0.0566303 -0.02236061
vt 0.05806576 -0.003563951
vt 0.06930003 0.01310533
vt 0.0510396 0.02521161
vt 0.03980269 0.008544087
vt -0.05774642 -0.01938695
vt -0.04949075 -0.01009266
vt -0.06609357 0.0004812343
vt -0.07098203 0.01836066
vt -0.06185731 0.0004494466
vt -0.05202776 0.007276554
vt 0.04970156 -0.02630061
vt 0.06100609 -0.00845377
vt 0.04264457 -0.01663478
vt 0.07172526 -0.003519032
vt 0.06384289 0.02392057
vt 0.05512244 0.005809051
vt -0.06663518 -0.004755509
vt -0.03928927 -0.006905396
vt -0.05359647 0.007214788
vt -0.05343701 0.008599433
vt -0.04096491 0.01289624
vt -0.04829384 0.03161416
vt 0.04919901 -0.01500954
vt 0.06584195 -0.003736722
vt 0.05326348 0.007556924
vt 0.03901654 -0.00662368
vt 0.05703867 0.006013638
vt 0.06542774 0.02428092
vt 0.048895 0.0306024
vt 0.04123588 0.01201726
vt -0.05364595 0.007286206
vt -0.03937583 -0.006871453
vt -0.02768 0.001108549
vt -0.04870351 0.03315676
vt -0.04224564 0.01412075
vt -0.02936443 0.01808309
vt 0.03902083 -0.006429872
vt 0.05326488 0.007753997
vt 0.02771853 0.0009106916
vt 0.0446985 0.01243353
vt 0.05157898 0.03132087
vt 0.03533974 0.03728049
vt 0.02908095 0.01817814
vt 0.04939805 -0.06628906
vt 0.05640966 -0.07442811
vt 0.06550301 -0.06483758
vt -0.0714381 -0.06460018
vt -0.05713408 -0.05636638
vt -0.0623947 -0.0433054
vt -0.02730011 0.002465965
vt -0.03955538 0.01868648
vt -0.05335523 0.00825602
vt 0.05313179 0.007866313
vt 0.03984065 0.01787904
vt 0.02746954 0.001471323
vt 0.07316352 -0.0544185
vt 0.08465257 -0.03100319
vt 0.06418918 -0.02429081
vt -0.06506402 -0.02409603
vt -0.08544613 -0.03105128
vt -0.07666885 -0.0483434
vt -0.07923523 -0.01692059
vt -0.08252033 -0.03858194
vt -0.06245165 -0.03076823
vt -0.06503769 -0.0009269634
vt -0.07795285 -0.0156923
vt -0.05612834 -0.02054948
vt 0.07101915 -0.004124415
vt 0.08035547 0.01367748
vt 0.06329491 0.02336012
vt 0.05560462 -0.02183589
vt 0.07743253 -0.01699397
vt 0.06474669 -0.002790561
vt 0.03210569 0.02320635
vt 0.04085356 0.03701029
vt 0.0300904 0.04531064
vt -0.08472705 0.005705414
vt -0.1002314 4.722677E-05
vt -0.09157529 -0.01381443
vt -0.09051456 -0.03415944
vt -0.08314033 -0.04979023
vt -0.06577504 -0.04046215
vt 0.02790026 0.02111083
vt 0.03835169 0.03700612
vt 0.02431528 0.04708975
vt -0.02602529 0.008691425
vt -0.03775013 0.0008945654
vt -0.02758998 -0.01196355
vt -0.03797399 0.02077565
vt -0.02996812 0.00711727
vt -0.01753529 0.01517936
vt -0.02924015 0.01820289
vt -0.03518626 0.03741833
vt -0.04868373 0.03314152
vt 0.04791684 -0.07354215
vt 0.05593862 -0.06933253
vt 0.04597121 -0.0494342
vt -0.05130661 0.008061711
vt -0.05946829 0.02484556
vt -0.07039393 0.0189151
vt -0.06616099 0.0005003
vt -0.04957838 -0.01010525
vt -0.0387869 -0.001254482
vt -0.04847654 0.03234991
vt -0.0611871 0.02658504
vt -0.05390574 0.009400969
vt 0.002692746 0.03264248
vt -0.004090216 0.05039047
vt -0.03564038 0.03559313
vt 0.0359986 0.03700544
vt 0.005049189 0.05129807
vt -0.0008008288 0.03336647
vt 0.003712326 0.04895433
vt -0.01465856 0.05790088
vt -0.004618326 0.03064694
vt 0.02063195 0.04318102
vt -0.004828668 0.05176917
vt 0.00360759 0.03474478
vt 0.0143817 0.03929018
vt 0.0007294634 0.02607597
vt 0.02633711 0.00119411
vt 0.0005737504 0.02651229
vt -0.0130676 0.04077263
vt -0.03877528 0.01838377
vt -0.0008186347 0.03366597
vt 0.0297756 0.01826153
vt 0.03598206 0.03729206
vt -0.01445985 0.05796392
vt -0.02282802 0.03977999
vt -0.004460084 0.0306951
vt 0.02547305 -0.0001611196
vt 0.03972952 0.01455857
vt 0.0151419 0.03840713
vt -0.03563068 0.03654429
vt -0.02913273 0.01750913
vt 0.002707919 0.03366559
vt -0.03867089 0.01706139
vt -0.02502009 0.001856587
vt 0.0006227373 0.02545362
vt 0.02061943 0.0439349
vt 0.01281821 0.06110772
vt -0.004885877 0.0523894
vt 0.07875894 -0.03800035
vt 0.0558916 -0.03932486
vt 0.07179539 -0.05363391
vt -0.008524394 0.02684856
vt -0.0215046 0.04229531
vt -0.03222272 0.03556558
vt -0.0197983 0.01966836
vt -0.05584126 -0.03737265
vt -0.06369605 -0.06019814
vt -0.04814475 -0.04741911
vt 0.02397015 0.03348162
vt 0.02545791 0.009193617
vt 0.03599953 0.0267277
vt -0.0597238 -0.002593477
vt -0.04212246 0.008158261
vt -0.05223545 0.02561718
vt -0.06983677 0.01486544
vt 0.09926245 0.00242185
vt 0.08280025 0.01231756
vt 0.07425568 -0.005960237
vt 0.05450968 -0.04109502
vt 0.04589425 -0.05293372
vt 0.05965252 -0.06810422
vt -0.01755846 0.02156692
vt -0.0298102 0.03759757
vt -0.04084126 0.0294457
vt -0.02933748 0.01287013
vt -0.05763464 -0.03950947
vt -0.06539403 -0.06426378
vt -0.05017352 -0.05101903
vt 0.02877948 0.03708985
vt 0.03170132 0.009842672
vt 0.04266241 0.02815638
vt 0.0612869 -0.06662475
vt 0.04727539 -0.05168782
vt 0.03558417 -0.06025596
vt -0.005918158 0.02745242
vt -0.01493398 0.04550231
vt -0.02677535 0.03901979
vt -0.01866195 0.02054667
vt -0.05075046 -0.05040255
vt -0.06605274 -0.06355273
vt -0.04009959 -0.05869737
vt 0.02125483 0.04250881
vt 0.02774962 0.01438823
vt 0.03673963 0.03245109
vt 0.03212622 -0.06343956
vt 0.02293724 -0.06003765
vt 0.02132495 -0.08242135
vt 0.05757969 0.01153788
vt 0.06282287 0.03102109
vt 0.0534035 0.0337298
vt 0.04816285 0.01424592
vt -0.03168018 -0.06268866
vt -0.04279926 -0.08122593
vt -0.02080932 -0.08163344
vt -0.02250007 -0.05925555
vt -0.04057804 0.04630297
vt -0.04100998 0.02613119
vt -0.0190215 0.02582715
vt -0.0185864 0.04599888
vt 0.03590693 -0.05715229
vt 0.0244192 -0.05203111
vt 0.01989314 -0.07169333
vt 0.05919475 0.002948967
vt 0.0672265 0.0214578
vt 0.04710852 0.006429975
vt -0.03070628 -0.05719345
vt -0.0141287 -0.07041518
vt -0.02059201 -0.05057153
vt -0.07651572 0.01614069
vt -0.05022708 0.004736757
vt -0.05869374 0.02305076
vt -0.005230697 -0.07161083
vt 0.004491707 -0.05393165
vt -0.005500881 -0.04407978
vt -0.01835211 -0.05963372
vt 0.04967186 0.002713844
vt 0.04764815 0.0276414
vt 0.03772426 0.01007427
vt 0.005685912 -0.07079875
vt 0.01821833 -0.05936002
vt 0.005473026 -0.04371886
vt -0.06178876 0.02011031
vt -0.05285565 0.002019344
vt -0.03747318 0.01090801
vt -0.04711566 0.02863104
vt -0.01784248 -0.05968853
vt -0.005085924 -0.04405654
vt -0.01400671 -0.03302862
vt 0.04155448 0.005943501
vt 0.05235729 0.0229842
vt 0.04114472 0.03055105
vt 0.02979253 0.01387134
vt 0.005580557 -0.0436691
vt 0.01834558 -0.05929418
vt 0.01402607 -0.03310248
vt -0.05322849 0.02321646
vt -0.04276778 0.005963643
vt -0.0278996 0.01493018
vt -0.03891922 0.03183147
vt -0.04747085 -0.04385039
vt -0.06174046 -0.05670756
vt -0.05296842 -0.06735523
vt 0.07939802 -0.04104
vt 0.06363003 -0.03126042
vt 0.05654517 -0.04259448
vt -0.01133482 -0.03375139
vt -0.02608827 -0.04816467
vt -0.01393069 -0.06056046
vt 0.01352392 -0.06033007
vt 0.02519875 -0.04838551
vt 0.0104547 -0.03396261
vt -0.06673516 -0.0615813
vt -0.05343842 -0.07439275
vt -0.04075168 -0.05689098
vt 0.03456052 -0.0619259
vt 0.04625147 -0.08010794
vt 0.06018836 -0.0685896
vt 0.02075852 -0.0824581
vt 0.04274604 -0.08209082
vt 0.03166007 -0.06353372
vt 0.01211483 -0.07117818
vt 0.02944777 -0.08051924
vt 0.02932719 -0.05807788
vt -0.07608099 0.01728256
vt -0.06821115 -0.001295744
vt -0.04983608 0.00577836
vt -0.03079216 -0.05721039
vt -0.03097887 -0.07965131
vt -0.01422629 -0.07044679
vt 0.03339928 0.0331324
vt 0.02143589 0.02016514
vt 0.03424369 0.008813517
vt 0.07426779 -0.005938888
vt 0.09130619 -0.01328479
vt 0.09926932 0.002458813
vt 0.0595025 -0.06820443
vt 0.06999762 -0.05583083
vt 0.05440121 -0.04118735
vt 0.0189374 0.03688098
vt 0.009366209 0.0187989
vt 0.02283806 0.009756638
vt -0.04988249 -0.04543065
vt -0.06568117 -0.05790254
vt -0.05536047 -0.07078762
vt 0.01843383 0.04223458
vt 0.009438505 0.02287943
vt 0.02530112 0.01420264
vt 0.06957765 0.01706919
vt 0.0584892 0.02188526
vt 0.04905475 0.002599254
vt 0.04813282 0.003635895
vt 0.05732375 0.02303913
vt 0.04557063 0.02851387
vt -0.005628424 -0.04339819
vt -0.01630262 -0.05075823
vt -0.008919209 -0.07027823
o group1023498138
g mesh1023498138
usemtl mat8
f 3/3/1 2/2/1 1/1/1
f 6/6/2 5/5/2 4/4/2
f 1/9/3 6/8/3 7/7/3
f 4/12/4 2/11/4 3/10/4
f 4/15/5 3/14/5 7/13/5
f 2/18/6 5/17/6 6/16/6
f 4/21/7 8/20/7 6/19/7
f 6/24/8 8/23/8 7/22/8
f 7/27/9 8/26/9 4/25/9
f 1/30/10 7/29/10 3/28/10
f 6/33/11 1/32/11 2/31/11
f 4/36/12 5/35/12 2/34/12
f 43/201/64 42/200/64 41/199/64
f 46/204/65 45/203/65 44/202/65
f 47/207/66 44/206/66 43/205/66
f 41/210/67 42/209/67 46/208/67
f 47/213/68 41/212/68 46/211/68
f 44/216/69 45/215/69 42/214/69
f 44/219/70 48/218/70 46/217/70
f 47/222/71 48/221/71 44/220/71
f 46/225/72 48/224/72 47/223/72
f 41/228/73 47/227/73 43/226/73
f 42/231/74 43/230/74 44/229/74
f 42/234/75 45/233/75 46/232/75
usemtl mat22
f 11/39/13 10/38/13 9/37/13
f 10/42/14 13/41/14 12/40/14
f 13/45/15 14/44/15 12/43/15
f 14/48/16 11/47/16 15/46/16
f 19/52/17 18/51/17 17/50/17 16/49/17
f 20/55/18 12/54/18 15/53/18
f 22/58/19 21/57/19 10/56/19
f 21/61/20 23/60/20 10/59/20
f 23/64/21 14/63/21 13/62/21
f 24/67/22 22/66/22 14/65/22
f 25/70/23 21/69/23 22/68/23
f 25/74/24 26/73/24 23/72/24 21/71/24
f 26/77/25 24/76/25 23/75/25
f 28/81/26 27/80/26 22/79/26 24/78/26
f 30/84/27 29/83/27 25/82/27
f 29/88/28 31/87/28 26/86/28 25/85/28
f 31/92/29 32/91/29 28/90/29 26/89/29
f 32/96/30 30/95/30 27/94/30 28/93/30
f 34/99/31 33/98/31 29/97/31
f 35/102/32 31/101/32 29/100/32
f 35/105/33 36/104/33 31/103/33
f 36/108/34 34/107/34 32/106/34
f 38/111/35 37/110/35 34/109/35
f 37/114/36 39/113/36 35/112/36
f 39/118/37 40/117/37 36/116/37 35/115/37
f 40/122/38 38/121/38 34/120/38 36/119/38
f 17/125/39 37/124/39 38/123/39
f 18/128/40 39/127/40 37/126/40
f 18/131/41 40/130/41 39/129/41
f 19/135/42 16/134/42 38/133/42 40/132/42
f 14/138/43 15/137/43 12/136/43
f 10/141/44 20/140/44 9/139/44
f 38/144/45 16/143/45 17/142/45
f 18/147/46 19/146/46 40/145/46
f 26/150/47 28/149/47 24/148/47
f 22/153/48 27/152/48 25/151/48
f 25/156/49 27/155/49 30/154/49
f 29/159/50 30/158/50 34/157/50
f 34/162/51 30/161/51 32/160/51
f 36/165/52 32/164/52 31/163/52
f 11/168/53 9/167/53 15/166/53
f 15/171/54 9/170/54 20/169/54
f 10/174/55 11/173/55 22/172/55
f 22/177/56 11/176/56 14/175/56
f 12/180/57 20/179/57 10/178/57
f 23/183/58 13/182/58 10/181/58
f 37/186/59 17/185/59 18/184/59
f 23/189/60 24/188/60 14/187/60
f 29/192/61 33/191/61 35/190/61
f 37/195/62 33/194/62 34/193/62
f 35/198/63 33/197/63 37/196/63
f 51/237/76 50/236/76 49/235/76
f 50/241/77 54/240/77 53/239/77 52/238/77
f 54/244/78 55/243/78 53/242/78
f 55/247/79 51/246/79 56/245/79
f 60/251/80 59/250/80 58/249/80 57/248/80
f 52/254/81 53/253/81 56/252/81
f 62/257/82 61/256/82 50/255/82
f 61/261/83 63/260/83 54/259/83 50/258/83
f 63/264/84 64/263/84 54/262/84
f 64/267/85 62/266/85 55/265/85
f 65/270/86 61/269/86 62/268/86
f 65/274/87 66/273/87 63/272/87 61/271/87
f 66/277/88 64/276/88 63/275/88
f 68/280/89 67/279/89 64/278/89
f 70/283/90 69/282/90 65/281/90
f 69/287/91 71/286/91 66/285/91 65/284/91
f 71/291/92 72/290/92 68/289/92 66/288/92
f 72/295/93 70/294/93 67/293/93 68/292/93
f 74/298/94 73/297/94 69/296/94
f 73/301/95 71/300/95 69/299/95
f 76/304/96 75/303/96 71/302/96
f 75/307/97 74/306/97 72/305/97
f 78/311/98 77/310/98 73/309/98 74/308/98
f 77/314/99 79/313/99 73/312/99
f 79/317/100 80/316/100 75/315/100
f 80/321/101 78/320/101 74/319/101 75/318/101
f 58/324/102 77/323/102 78/322/102
f 58/328/103 59/327/103 79/326/103 77/325/103
f 59/331/104 80/330/104 79/329/104
f 60/335/105 57/334/105 78/333/105 80/332/105
f 55/338/106 56/337/106 53/336/106
f 50/341/107 52/340/107 49/339/107
f 78/344/108 57/343/108 58/342/108
f 59/347/109 60/346/109 80/345/109
f 66/350/110 68/349/110 64/348/110
f 62/353/111 67/352/111 65/351/111
f 65/356/112 67/355/112 70/354/112
f 69/359/113 70/358/113 74/357/113
f 74/362/114 70/361/114 72/360/114
f 75/365/115 72/364/115 71/363/115
f 51/368/116 49/367/116 56/366/116
f 56/371/117 49/370/117 52/369/117
f 50/374/118 51/373/118 62/372/118
f 62/377/119 51/376/119 55/375/119
f 64/380/120 55/379/120 54/378/120
f 67/383/121 62/382/121 64/381/121
f 73/386/122 76/385/122 71/384/122
f 79/389/123 76/388/123 73/387/123
f 75/392/124 76/391/124 79/390/124
